<svg id="Layer_1" data-name="Layer 1" xmlns="http://www.w3.org/2000/svg" viewBox="0 0 1116.82 1243.8"><defs><style>.cls-1{fill:none;stroke:#ffffff;stroke-miterlimit:10;stroke-width:70px;}</style></defs><line class="cls-1" x1="558.9" y1="241.27" x2="308.4" y2="641.27"/><line class="cls-1" x1="808.4" y1="641.27" x2="558.9" y2="241.27"/><line class="cls-1" x1="308.4" y1="641.27" x2="808.4" y2="641.27"/><line class="cls-1" x1="558.9" y1="241.27" x2="158.4" y2="291.27"/><line class="cls-1" x1="308.4" y1="641.27" x2="158.4" y2="291.27"/><line class="cls-1" x1="808.4" y1="641.27" x2="958.4" y2="291.27"/><line class="cls-1" x1="558.9" y1="241.27" x2="958.4" y2="291.27"/><line class="cls-1" x1="158.4" y1="741.27" x2="308.4" y2="641.27"/><line class="cls-1" x1="958.4" y1="741.27" x2="808.4" y2="641.27"/><line class="cls-1" x1="558.9" y1="41.27" x2="558.9" y2="241.27"/><line class="cls-1" x1="308.4" y1="641.27" x2="558.4" y2="991.27"/><line class="cls-1" x1="808.4" y1="641.27" x2="558.4" y2="991.27"/><polygon class="cls-1" points="958.4 741.27 958.4 291.27 558.9 41.27 158.4 291.27 158.4 741.27 558.4 991.27 958.4 741.27"/><polyline class="cls-1" points="1108.4 1209.82 558.9 1073.67 8.4 1209.82"/></svg>
